<svg
  width="18"
  height="18"
  viewBox="0 0 18 18"
  fill="none"
  xmlns="http://www.w3.org/2000/svg"
>
  <path
    d="M7.8427 5.6829C7.94556 5.58004 7.94556 5.42576 7.8427 5.3229L5.42556 2.90576C5.3227 2.8029 5.16841 2.8029 5.06556 2.90576L4.2427 3.72861L7.01984 6.50576L7.8427 5.6829ZM7.94556 10.0543C6.68556 8.79433 6.09413 7.50861 6.53127 7.02004L3.72841 4.2429L3.21413 4.75718C2.82841 5.1429 2.75127 5.70861 2.93127 6.45433C3.7027 9.30861 8.69127 14.2972 11.5456 15.0686C11.8027 15.1458 12.0341 15.1715 12.2398 15.1715C12.6513 15.1715 12.9856 15.0429 13.217 14.7858L13.757 14.2458L10.9798 11.4943C10.4913 11.9058 9.17984 11.3143 7.94556 10.0543ZM15.0941 12.5743L12.677 10.1572C12.5741 10.0543 12.4198 10.0543 12.317 10.1572L11.4941 10.98L14.2713 13.7572L15.0941 12.9343C15.197 12.8315 15.197 12.6772 15.0941 12.5743Z"
    fill="#484848"
  />
</svg>
