<svg
  width="18"
  height="18"
  viewBox="0 0 18 18"
  fill="none"
  xmlns="http://www.w3.org/2000/svg"
>
  <path
    d="M10.125 6.1875C10.125 5.56875 9.61875 5.0625 9 5.0625C8.38125 5.0625 7.875 5.56875 7.875 6.1875V7.3125H10.125V6.1875Z"
    fill="#484848"
  />
  <path
    d="M2.25 3.9376V8.4376C2.25 13.1063 4.725 14.5126 8.1 16.4251L8.71875 16.7626C8.83125 16.8751 8.8875 16.8751 9 16.8751C9.1125 16.8751 9.16875 16.8751 9.28125 16.8188L9.9 16.4813C13.275 14.5126 15.75 13.1063 15.75 8.4376V3.9376C15.75 3.7126 15.5812 3.4876 15.3562 3.43135L9.16875 1.18135C9.05625 1.1251 8.8875 1.1251 8.775 1.18135L2.5875 3.43135C2.41875 3.4876 2.25 3.7126 2.25 3.9376ZM5.625 9.0001C5.625 8.26885 6.075 7.6501 6.75 7.4251V6.1876C6.75 4.9501 7.7625 3.9376 9 3.9376C10.2375 3.9376 11.25 4.9501 11.25 6.1876V7.4251C11.925 7.6501 12.375 8.26885 12.375 9.0001V10.6876C12.375 12.5438 10.8562 14.0626 9 14.0626C7.14375 14.0626 5.625 12.5438 5.625 10.6876V9.0001Z"
    fill="#484848"
  />
  <path
    d="M9 9C8.6625 9 8.4375 9.225 8.4375 9.5625V10.6875C8.4375 11.025 8.6625 11.25 9 11.25C9.3375 11.25 9.5625 11.025 9.5625 10.6875V9.5625C9.5625 9.225 9.3375 9 9 9Z"
    fill="#484848"
  />
</svg>
