<svg
  width="18"
  height="18"
  viewBox="0 0 18 18"
  fill="none"
  xmlns="http://www.w3.org/2000/svg"
>
  <path
    d="M9.5356 1.50027C9.9481 1.49277 10.3388 1.64202 10.6306 1.92777C10.9238 2.20452 11.0806 2.58777 11.0806 2.99277C11.0806 3.81777 11.7631 4.48602 12.6113 4.48602C12.8731 4.48602 13.1356 4.41027 13.3688 4.28277C14.0956 3.89202 15.0031 4.14027 15.4156 4.83777L15.9263 5.71527C16.0538 5.94027 16.1281 6.19527 16.1281 6.45777C16.1281 6.99027 15.8363 7.48602 15.3638 7.74777C15.1306 7.87527 14.9356 8.07027 14.8013 8.29602C14.4031 9.00027 14.6513 9.89202 15.3638 10.2985C16.0831 10.7103 16.3306 11.611 15.9263 12.3228L15.4156 13.171C15.1456 13.6353 14.6431 13.921 14.1031 13.921C13.8331 13.921 13.5631 13.8528 13.3388 13.7178C13.0981 13.5903 12.8363 13.5153 12.5731 13.5153C12.1681 13.5153 11.7781 13.6735 11.4938 13.9578C11.2006 14.236 11.0431 14.6178 11.0431 15.0153C11.0431 15.8328 10.3613 16.5003 9.5131 16.5003H8.48635C8.0806 16.5003 7.6981 16.3353 7.4206 16.0578C7.1356 15.7728 6.98635 15.3978 6.98635 15.0078C6.98635 14.1828 6.3106 13.5153 5.46385 13.5153C5.1856 13.5153 4.9156 13.5903 4.6831 13.7335C4.3306 13.9278 3.9106 13.9803 3.5206 13.8828C3.1306 13.7778 2.7931 13.5228 2.5906 13.1853L2.11135 12.3378C1.8856 11.986 1.8181 11.5653 1.92385 11.1678C2.0281 10.7703 2.29885 10.4328 2.6656 10.2303C2.89885 10.1028 3.0931 9.91527 3.2281 9.68277C3.61885 8.97777 3.3706 8.09277 2.6656 7.68027C1.9531 7.27527 1.7056 6.38277 2.11135 5.67777L2.5906 4.83777C2.7931 4.48602 3.1306 4.23027 3.5281 4.12527C3.92635 4.02027 4.3456 4.07952 4.6981 4.28277C4.9381 4.41027 5.2006 4.47777 5.46385 4.47777C5.86885 4.47777 6.2581 4.32027 6.5431 4.04277C6.8281 3.76527 6.98635 3.38277 6.98635 2.99277C6.98635 2.16777 7.6681 1.50027 8.5156 1.50027H9.5356ZM9.83635 7.11102C9.04885 6.78777 8.1406 6.96027 7.5331 7.55277C6.9331 8.13777 6.7456 9.03027 7.0756 9.79602C7.39885 10.5678 8.1631 11.0703 9.0181 11.0703H9.02635C9.58885 11.0778 10.1138 10.861 10.5106 10.4703C10.9081 10.0878 11.1331 9.56277 11.1331 9.01527C11.1406 8.18277 10.6231 7.42527 9.83635 7.11102Z"
    fill="#484848"
  />
</svg>
